<svg version="1.1" id="Calque_18" xmlns="http://www.w3.org/2000/svg" fill="#A8927B"  xmlns:xlink="http://www.w3.org/1999/xlink" x="0px" y="0px" viewBox="0 0 234.2 234.2" style="enable-background:new 0 0 234.2 234.2;" xml:space="preserve">
<g>
	<path d="M107.2,88.3l1.9-3.5C88.8,73.5,69.8,79.7,69,79.9l1.3,3.8C70.4,83.7,88.4,77.9,107.2,88.3z"></path>
	<path d="M163.9,83.7l1.3-3.8c-0.8-0.3-19.8-6.4-40.1,4.9l1.9,3.5C145.7,77.9,163.7,83.7,163.9,83.7z"></path>
	<path d="M107.2,99l1.9-3.5C88.8,84.2,69.8,90.3,69,90.6l1.3,3.8C70.4,94.3,88.4,88.5,107.2,99z"></path>
	<path d="M163.9,94.4l1.3-3.8c-0.8-0.3-19.8-6.4-40.1,4.9L127,99C145.7,88.6,163.7,94.3,163.9,94.4z"></path>
	<path d="M107.2,109.7l1.9-3.5C88.8,94.9,69.8,101,69,101.3l1.3,3.8C70.4,105,88.4,99.2,107.2,109.7z"></path>
	<path d="M163.9,105.1l1.3-3.8c-0.8-0.3-19.8-6.4-40.1,4.9l1.9,3.5C145.7,99.2,163.7,105,163.9,105.1z"></path>
	<path d="M107.2,120.3l1.9-3.5c-20.3-11.3-39.3-5.2-40.1-4.9l1.3,3.8C70.4,115.7,88.4,109.9,107.2,120.3z"></path>
	<path d="M163.9,115.7l1.3-3.8c-0.8-0.3-19.8-6.4-40.1,4.9l1.9,3.5C145.7,109.9,163.7,115.7,163.9,115.7z"></path>
	<path d="M107.2,131l1.9-3.5c-20.3-11.3-39.3-5.2-40.1-4.9l1.3,3.8C70.4,126.3,88.4,120.5,107.2,131z"></path>
	<path d="M163.9,126.4l1.3-3.8c-0.8-0.3-19.8-6.4-40.1,4.9l1.9,3.5C145.7,120.6,163.7,126.3,163.9,126.4z"></path>
	<path d="M107.2,141.6l1.9-3.5c-20.3-11.3-39.3-5.2-40.1-4.9l1.3,3.8C70.4,137,88.4,131.2,107.2,141.6z"></path>
	<path d="M125.1,138.2l1.9,3.5c18.7-10.4,36.7-4.7,36.9-4.6l1.3-3.8C164.4,133,145.4,126.9,125.1,138.2z"></path>
	<path d="M177.2,76.4v-7.7l-1.3-0.5c-1.4-0.5-31.1-11.1-54.1,4.1h-4.7h-0.1h-4.7c-23-15.3-52.8-4.6-54.1-4.1l-1.3,0.5v7.7
		c-1.8,0.1-4.4,0.7-6,3.6v80h58.8c0,0,2.8,3,7.4,3s7.4-3,7.4-3h58.8v-80C181.6,77.2,179,76.5,177.2,76.4z M173.2,71.5v76.3
		c-19.3-7.3-45.6,1.2-54.1,4.4v-27l2.8,3.4V77.2C141,62.8,167.1,69.6,173.2,71.5z M60.9,71.5c6.1-1.9,32.2-8.7,51.3,5.6v51.4
		l2.8-3.4v27c-6.1-2.3-21.3-7.2-36.5-7.2c-6.1,0-12.1,0.8-17.6,2.9V71.5z"></path>
</g>
</svg>