<svg version="1.1" xmlns="http://www.w3.org/2000/svg" fill="#A8927B"  xmlns:xlink="http://www.w3.org/1999/xlink" x="0px" y="0px" viewBox="0 0 234.2 234.2" style="enable-background:new 0 0 234.2 234.2;" xml:space="preserve">
<g id="coeur_2">
	<path d="M117.5,169.5l-2.6-2.1c-0.2-0.1-17.6-14.2-33.2-30.7c-6.5-6.8-15.4-17.2-21.2-28.3c-6.3-12-4.9-21.8-2.6-27.9
		c3.9-10.4,12.5-16.8,19.2-19.4c10.6-4.1,26.5-2.9,40.4,11.8c14-14.7,29.8-15.9,40.4-11.8c6.7,2.6,15.3,9,19.2,19.4
		c2.3,6.1,3.7,15.9-2.6,27.9c-5.8,11.1-14.8,21.5-21.2,28.3c-15.7,16.4-33.1,30.5-33.2,30.7L117.5,169.5z"></path>
</g>
<g id="coeur_1">
	<path d="M88.5,67.3c-3.9,0-6.9,0.9-8.5,1.5c-4.8,1.9-11.5,6.8-14.5,14.7c-2.5,6.6-1.8,13.8,2.2,21.2c4.2,8,11.3,17.4,19.9,26.5
		c11.8,12.4,24.6,23.4,29.9,27.8c5.3-4.5,18.1-15.5,29.9-27.8c8.6-9,15.7-18.4,19.9-26.5c3.9-7.5,4.6-14.6,2.2-21.2
		c-3-7.8-9.6-12.8-14.5-14.7c-4.3-1.6-19.3-5.5-34.4,13l-3.2,3.9l-3.2-3.9C104.8,70,95.3,67.3,88.5,67.3z"></path>
</g>
</svg>