<svg version="1.1" id="Calque_1" xmlns="http://www.w3.org/2000/svg" fill="#A8927B" xmlns:xlink="http://www.w3.org/1999/xlink" x="0px" y="0px" viewBox="0 0 234.2 234.2" style="enable-background:new 0 0 234.2 234.2;" xml:space="preserve">
<g id="plan_x5F_carte_x5F_point" style="">
	<g>
		<path d="M88.766,135.4c-1.418,0-2.931-0.095-4.349-0.189c-2.553-0.189-5.106-0.756-7.375-1.513l2.931-8.888
			c1.607,0.567,3.404,0.945,5.295,1.04c1.135,0.095,2.364,0.189,3.498,0.189h0.095l0.095,9.36L88.766,135.4z M98.694,134.36
			l-1.796-9.171c3.12-0.567,6.24-1.513,9.266-2.742l3.404,8.699C106.068,132.469,102.381,133.603,98.694,134.36z M120.346,125.661
			c-0.756,0.473-1.418,0.851-2.269,1.324l-4.538-8.131c0.662-0.378,1.229-0.756,1.796-1.135c1.986-1.229,4.538-2.837,7.564-4.255
			l4.16,8.415C124.506,123.203,122.142,124.621,120.346,125.661z M153.154,108.453c3.877,0.945,7.564,2.269,10.873,3.877l-4.16,8.32
			c-2.742-1.324-5.768-2.458-8.888-3.215L153.154,108.453z M142.187,107.886c0.284,0,0.662,0,0.945,0l0.284,9.36
			c-0.284,0-0.473,0-0.756,0l0,0c-2.742,0.095-5.484,0.662-8.226,1.607l-3.026-8.793
			C135.001,108.737,138.594,108.075,142.187,107.886L142.187,107.886z"></path>
		<path d="M165.73,82.168h-21.936l-4.728,9.36h19.95l10.117,30.161l-3.309,3.498
			c2.647,3.026,3.782,3.971,5.389,6.24l0.946-0.756l8.793,26.19H57.753l9.266-27.798l0.851,0.567l5.106-7.848
			c-0.945-0.851-2.742-2.269-2.742-2.269L79.5,91.529h19.95l-5.011-9.36H72.692L44.8,166.129H194L165.73,82.168z"></path>
		<path d="M96.897,125.188l1.796,9.171c3.687-0.756,7.375-1.796,10.873-3.215l-3.404-8.699
			C103.137,123.581,100.017,124.527,96.897,125.188z"></path>
		<path d="M164.122,112.33c-3.404-1.702-7.28-3.026-11.157-3.971l-1.986,9.171
			c3.215,0.756,6.146,1.796,8.888,3.215L164.122,112.33z"></path>
		<path d="M88.766,126.039c-1.229,0-2.364-0.095-3.498-0.189c-1.891-0.189-3.687-0.567-5.295-1.04
			l-2.931,8.888c2.364,0.756,4.822,1.324,7.375,1.513c1.418,0.095,2.837,0.189,4.349,0.189h0.189L88.766,126.039L88.766,126.039z"></path>
		<path d="M115.429,117.814c-0.567,0.378-1.229,0.756-1.796,1.135l4.538,8.131
			c0.756-0.473,1.513-0.851,2.269-1.324c1.796-1.135,4.066-2.553,6.713-3.782l-4.16-8.415
			C119.967,114.977,117.32,116.584,115.429,117.814z"></path>
		<path d="M134.433,118.854c2.742-0.946,5.484-1.513,8.226-1.607l0,0c0.284,0,0.473,0,0.756,0l-0.284-9.36
			c-0.284,0-0.662,0-0.945,0l0,0c-3.593,0.189-7.186,0.851-10.779,2.08L134.433,118.854z"></path>
	</g>
	<g>
		<path d="M142.659,58.814c0-12.953-10.495-23.543-23.543-23.543c-12.953,0-23.543,10.495-23.543,23.543
			c0,3.12,0.567,6.051,1.702,8.699l0.378,0.946c0.378,0.851,0.756,1.607,1.229,2.364l20.423,39.238l19.856-39.144
			c0.567-0.945,1.135-1.986,1.607-3.12l0.189-0.284l0,0C141.997,64.866,142.659,61.934,142.659,58.814z M119.022,72.902
			c-7.753,0-13.993-6.24-13.993-13.993s6.24-13.993,13.993-13.993s13.993,6.24,13.993,13.993
			C133.015,66.662,126.775,72.902,119.022,72.902z"></path>
	</g>
</g>
</svg>