<svg version="1.1" id="Calque_17" fill="#A8927B"  xmlns="http://www.w3.org/2000/svg" xmlns:xlink="http://www.w3.org/1999/xlink" x="0px" y="0px" viewBox="0 0 234.2 234.2" style="enable-background:new 0 0 234.2 234.2;" xml:space="preserve">
<g>
	<path d="M175.5,78.1h-22.3v9.4c0,0,0.1,2.1-2.8,2.1h-1.8V69.3c0-0.3-0.1-2.8-1.9-4.7c-0.9-0.9-2.5-2-5.3-2H93.7
		c-2.7,0-4.4,1.1-5.3,2c-1.9,1.9-1.9,4.4-1.9,4.7v20.3h-1.9c-2.9,0-2.8-2.1-2.8-2.1v-9.4H59.5c0,0-4.2,0.5-4.2,4
		c0,3.5,0,42.6,0,42.6s-0.1,15.8,20.1,15.8l0.3-24.8c0,0,0-1.9,2.2-1.9h79.4c2.2,0,2.1,1.9,2.1,1.9l0.3,24.8
		c20.2,0,20.1-15.8,20.1-15.8s0-39,0-42.6C179.7,78.6,175.5,78.1,175.5,78.1z M65.5,125.4c-1.7,0-3.2-1.4-3.2-3.2
		c0-1.7,1.4-3.2,3.2-3.2s3.2,1.4,3.2,3.2C68.6,124,67.2,125.4,65.5,125.4z M67.1,89.5h-3.3c-0.9,0-1.6-0.7-1.6-1.6
		c0-0.9,0.7-1.6,1.6-1.6h3.3c0.9,0,1.6,0.7,1.6,1.6C68.7,88.8,68,89.5,67.1,89.5z M144.4,89.5H90.6V69.3c0,0,0.1-1,0.7-1.7
		c0.5-0.5,1.3-0.7,2.3-0.7h47.7c2.6,0,3,1.6,3.1,2.5V89.5z"></path>
	<path d="M150.7,160.4c0,0.9-0.5,2.5-3.1,2.5H95.4l0-1.9c0,0,0-2,0-4.1c0-2.7-2.9-5.5-6.6-5.5l-4.4-0.1v-32.8h-4.2v32.8l15.2,15.8
		h52.3c2.7,0,4.4-1.1,5.3-2c1.9-1.9,1.9-4.4,1.9-4.7v-42h-4.2L150.7,160.4z"></path>
	<path d="M92.2,125.1h50.6c0.9,0,1.6-0.7,1.6-1.6c0-0.9-0.7-1.6-1.6-1.6H92.2c-0.9,0-1.6,0.7-1.6,1.6
		C90.6,124.3,91.3,125.1,92.2,125.1z"></path>
	<path d="M92.2,133.7h50.6c0.9,0,1.6-0.7,1.6-1.6c0-0.9-0.7-1.6-1.6-1.6H92.2c-0.9,0-1.6,0.7-1.6,1.6
		C90.6,133,91.3,133.7,92.2,133.7z"></path>
	<path d="M92.2,142.4h50.6c0.9,0,1.6-0.7,1.6-1.6s-0.7-1.6-1.6-1.6H92.2c-0.9,0-1.6,0.7-1.6,1.6S91.3,142.4,92.2,142.4z"></path>
	<path d="M142.8,147.8h-40.4c-0.9,0-1.6,0.7-1.6,1.6c0,0.9,0.7,1.6,1.6,1.6h40.4c0.9,0,1.6-0.7,1.6-1.6
		C144.5,148.5,143.7,147.8,142.8,147.8z"></path>
</g>
</svg>