<svg version="1.1" id="Share" fill="#A8927B"  xmlns="http://www.w3.org/2000/svg" xmlns:xlink="http://www.w3.org/1999/xlink" x="0px" y="0px" viewBox="0 0 234.2 234.2" style="enable-background:new 0 0 234.2 234.2;" xml:space="preserve">
<path style="&amp;st0;" d="M152,131c-7.5,0-14,3.6-18.3,9l-32.4-18c0.3-1.6,0.5-3.1,0.5-4.7s-0.2-3.2-0.5-4.7l32.3-18.1
	c4.3,5.5,10.9,9,18.3,9c13,0,23.4-10.5,23.4-23.4S164.9,56.7,152,56.7c-13,0-23.4,10.5-23.4,23.4c0,1.5,0.2,2.8,0.5,4.2l-32.6,18.2
	c-4.3-5.2-10.8-8.7-18-8.7c-13,0-23.4,10.5-23.4,23.4c0,13,10.5,23.4,23.4,23.4c7.3,0,13.7-3.4,18.1-8.7l32.6,18.2
	c-0.3,1.4-0.5,2.7-0.5,4.2c0,13,10.5,23.4,23.4,23.4c13,0,23.4-10.5,23.4-23.4C175.5,141.6,164.9,131,152,131z M152,67.8
	c6.8,0,12.3,5.5,12.3,12.3s-5.5,12.3-12.3,12.3s-12.3-5.5-12.3-12.3C139.7,73.4,145.2,67.8,152,67.8z M78.4,129.6
	c-6.8,0-12.3-5.5-12.3-12.3S71.6,105,78.4,105s12.3,5.5,12.3,12.3C90.7,124.1,85.1,129.6,78.4,129.6z M152,166.8
	c-6.8,0-12.3-5.5-12.3-12.3s5.5-12.3,12.3-12.3s12.3,5.5,12.3,12.3S158.7,166.8,152,166.8z"></path>
</svg>